<svg width="24" height="25" viewBox="0 0 24 25" fill="none" xmlns="http://www.w3.org/2000/svg">
<g id="comment">
<path id="Vector" d="M8 10.3167H8.01M12 10.3167H12.01M16 10.3167H16.01M9 16.3167H5C4.46957 16.3167 3.96086 16.1059 3.58579 15.7309C3.21071 15.3558 3 14.8471 3 14.3167V6.31665C3 5.78622 3.21071 5.27751 3.58579 4.90244C3.96086 4.52736 4.46957 4.31665 5 4.31665H19C19.5304 4.31665 20.0391 4.52736 20.4142 4.90244C20.7893 5.27751 21 5.78622 21 6.31665V14.3167C21 14.8471 20.7893 15.3558 20.4142 15.7309C20.0391 16.1059 19.5304 16.3167 19 16.3167H14L9 21.3167V16.3167Z" stroke="#93A5B4" stroke-width="2" stroke-linecap="round" stroke-linejoin="round"/>
</g>
</svg>
