<svg width="16" height="16" viewBox="0 0 16 16" fill="none" xmlns="http://www.w3.org/2000/svg">
<g id="HorizontalLogo">
<g id="Group">
<g id="Docs_3_">
<g id="Group_2">
<g id="Group_3">
<g id="Group_4">
<g id="Group_5">
<path id="Vector" d="M13.7871 4.21875L10.5059 3.28125L9.56836 0H3.00586C2.2292 0 1.59961 0.629594 1.59961 1.40625V14.5938C1.59961 15.3704 2.2292 16 3.00586 16H12.3809C13.1575 16 13.7871 15.3704 13.7871 14.5938V4.21875Z" fill="#4086F4"/>
</g>
</g>
</g>
</g>
<path id="Vector_2" d="M13.7871 4.21875V14.5938C13.7871 15.3704 13.1575 16 12.3809 16H7.69336V0H9.56836L10.5059 3.28125L13.7871 4.21875Z" fill="#4175DF"/>
<path id="Vector_3" d="M13.7871 4.21875H10.5059C9.99023 4.21875 9.56836 3.79688 9.56836 3.28125V0C9.69023 0 9.81211 0.046875 9.89645 0.140656L13.6465 3.89066C13.7402 3.975 13.7871 4.09688 13.7871 4.21875Z" fill="#80AEF8"/>
<g id="Group_6">
<path id="Vector_4" d="M10.5059 7.53125H4.88086C4.62177 7.53125 4.41211 7.32159 4.41211 7.0625C4.41211 6.80341 4.62177 6.59375 4.88086 6.59375H10.5059C10.765 6.59375 10.9746 6.80341 10.9746 7.0625C10.9746 7.32159 10.765 7.53125 10.5059 7.53125Z" fill="#FFF5F5"/>
</g>
<g id="Group_7">
<path id="Vector_5" d="M10.5059 9.40625H4.88086C4.62177 9.40625 4.41211 9.19659 4.41211 8.9375C4.41211 8.67841 4.62177 8.46875 4.88086 8.46875H10.5059C10.765 8.46875 10.9746 8.67841 10.9746 8.9375C10.9746 9.19659 10.765 9.40625 10.5059 9.40625Z" fill="#FFF5F5"/>
</g>
<g id="Group_8">
<path id="Vector_6" d="M10.5059 11.2812H4.88086C4.62177 11.2812 4.41211 11.0716 4.41211 10.8125C4.41211 10.5534 4.62177 10.3438 4.88086 10.3438H10.5059C10.765 10.3438 10.9746 10.5534 10.9746 10.8125C10.9746 11.0716 10.765 11.2812 10.5059 11.2812Z" fill="#FFF5F5"/>
</g>
<g id="Group_9">
<path id="Vector_7" d="M8.63086 13.1562H4.88086C4.62177 13.1562 4.41211 12.9466 4.41211 12.6875C4.41211 12.4284 4.62177 12.2188 4.88086 12.2188H8.63086C8.88995 12.2188 9.09961 12.4284 9.09961 12.6875C9.09961 12.9466 8.88995 13.1562 8.63086 13.1562Z" fill="#FFF5F5"/>
</g>
</g>
<g id="Docs_4_">
<g id="Group_10">
<g id="Group_11">
<path id="Vector_8" d="M7.69336 13.1562H8.63086C8.88995 13.1562 9.09961 12.9466 9.09961 12.6875C9.09961 12.4284 8.88995 12.2188 8.63086 12.2188H7.69336V13.1562Z" fill="#E3E7EA"/>
</g>
<g id="Group_12">
<path id="Vector_9" d="M7.69336 11.2812H10.5059C10.765 11.2812 10.9746 11.0716 10.9746 10.8125C10.9746 10.5534 10.765 10.3438 10.5059 10.3438H7.69336V11.2812Z" fill="#E3E7EA"/>
</g>
<g id="Group_13">
<path id="Vector_10" d="M7.69336 9.40625H10.5059C10.765 9.40625 10.9746 9.19659 10.9746 8.9375C10.9746 8.67841 10.765 8.46875 10.5059 8.46875H7.69336V9.40625Z" fill="#E3E7EA"/>
</g>
<g id="Group_14">
<path id="Vector_11" d="M7.69336 7.53125H10.5059C10.765 7.53125 10.9746 7.32159 10.9746 7.0625C10.9746 6.80341 10.765 6.59375 10.5059 6.59375H7.69336V7.53125Z" fill="#E3E7EA"/>
</g>
</g>
</g>
</g>
</g>
</svg>
