<svg width="22" height="22" viewBox="0 0 22 22" fill="none" xmlns="http://www.w3.org/2000/svg">
<g id="facebook">
<path id="Vector" d="M18.9062 2.40625H3.09375C2.71348 2.40625 2.40625 2.71348 2.40625 3.09375V18.9062C2.40625 19.2865 2.71348 19.5938 3.09375 19.5938H18.9062C19.2865 19.5938 19.5938 19.2865 19.5938 18.9062V3.09375C19.5938 2.71348 19.2865 2.40625 18.9062 2.40625ZM16.9211 7.42285H15.5482C14.4719 7.42285 14.2635 7.93418 14.2635 8.68613V10.3426H16.833L16.4979 12.9357H14.2635V19.5938H11.5844V12.9379H9.34355V10.3426H11.5844V8.43047C11.5844 6.21113 12.94 5.00156 14.9209 5.00156C15.8705 5.00156 16.6848 5.07246 16.9232 5.10469V7.42285H16.9211Z" fill="#698296"/>
</g>
</svg>
