<svg width="21" height="20" viewBox="0 0 21 20" fill="none" xmlns="http://www.w3.org/2000/svg">
<g id="fi:image">
<path id="Vector" d="M16.3333 2.5H4.66667C3.74619 2.5 3 3.24619 3 4.16667V15.8333C3 16.7538 3.74619 17.5 4.66667 17.5H16.3333C17.2538 17.5 18 16.7538 18 15.8333V4.16667C18 3.24619 17.2538 2.5 16.3333 2.5Z" stroke="#2D3840" stroke-width="2" stroke-linecap="round" stroke-linejoin="round"/>
<path id="Vector_2" d="M17.9993 12.5L13.8327 8.33337L4.66602 17.5" stroke="#2D3840" stroke-width="2" stroke-linecap="round" stroke-linejoin="round"/>
<path id="Vector_3" d="M7.58398 8.33337C8.27434 8.33337 8.83398 7.77373 8.83398 7.08337C8.83398 6.39302 8.27434 5.83337 7.58398 5.83337C6.89363 5.83337 6.33398 6.39302 6.33398 7.08337C6.33398 7.77373 6.89363 8.33337 7.58398 8.33337Z" stroke="#2D3840" stroke-width="2" stroke-linecap="round" stroke-linejoin="round"/>
</g>
</svg>
