<svg width="20" height="20" viewBox="0 0 20 20" fill="none" xmlns="http://www.w3.org/2000/svg">
<g id="Frame 3466382">
<g id="Group 841">
<path id="Vector" d="M10.6473 6.91895H0.976563C0.717562 6.91895 0.46917 6.81606 0.286029 6.63292C0.102888 6.44978 0 6.20138 0 5.94238C0 5.68338 0.102888 5.43499 0.286029 5.25185C0.46917 5.06871 0.717562 4.96582 0.976563 4.96582H10.6484C10.9074 4.96582 11.1558 5.06871 11.339 5.25185C11.5221 5.43499 11.625 5.68338 11.625 5.94238C11.625 6.20138 11.5221 6.44978 11.339 6.63292C11.1558 6.81606 10.9074 6.91895 10.6484 6.91895H10.6473Z" fill="black"/>
<path id="Vector_2" d="M19.0227 6.91895H16.5781C16.3191 6.91895 16.0707 6.81606 15.8876 6.63292C15.7044 6.44978 15.6016 6.20138 15.6016 5.94238C15.6016 5.68338 15.7044 5.43499 15.8876 5.25185C16.0707 5.06871 16.3191 4.96582 16.5781 4.96582H19.0227C19.2817 4.96582 19.53 5.06871 19.7132 5.25185C19.8963 5.43499 19.9992 5.68338 19.9992 5.94238C19.9992 6.20138 19.8963 6.44978 19.7132 6.63292C19.53 6.81606 19.2817 6.91895 19.0227 6.91895Z" fill="#2D3840"/>
<path id="Vector_3" d="M19.0223 15.938H9.35156C9.09256 15.938 8.84417 15.8351 8.66103 15.652C8.47789 15.4688 8.375 15.2204 8.375 14.9614C8.375 14.7024 8.47789 14.454 8.66103 14.2709C8.84417 14.0878 9.09256 13.9849 9.35156 13.9849H19.0223C19.2813 13.9849 19.5297 14.0878 19.7128 14.2709C19.8959 14.454 19.9988 14.7024 19.9988 14.9614C19.9988 15.2204 19.8959 15.4688 19.7128 15.652C19.5297 15.8351 19.2813 15.938 19.0223 15.938Z" fill="black"/>
<path id="Vector_4" d="M3.42109 15.938H0.976562C0.717562 15.938 0.469169 15.8351 0.286029 15.652C0.102888 15.4688 0 15.2204 0 14.9614C0 14.7024 0.102888 14.454 0.286029 14.2709C0.469169 14.0878 0.717562 13.9849 0.976562 13.9849H3.42109C3.68009 13.9849 3.92849 14.0878 4.11163 14.2709C4.29477 14.454 4.39766 14.7024 4.39766 14.9614C4.39766 15.2204 4.29477 15.4688 4.11163 15.652C3.92849 15.8351 3.68009 15.938 3.42109 15.938Z" fill="black"/>
<path id="Vector_5" d="M6.38828 18.8314C5.6085 18.8315 4.8462 18.6004 4.1978 18.1672C3.54939 17.734 3.044 17.1183 2.74554 16.3979C2.44707 15.6775 2.36894 14.8848 2.52102 14.12C2.6731 13.3551 3.04857 12.6526 3.59993 12.1012C4.15129 11.5498 4.85379 11.1742 5.61859 11.0221C6.38339 10.8699 7.17613 10.948 7.89656 11.2464C8.617 11.5448 9.23277 12.0501 9.666 12.6984C10.0992 13.3468 10.3305 14.1091 10.3305 14.8889C10.3297 15.9342 9.91419 16.9365 9.17505 17.6758C8.43592 18.415 7.43363 18.8306 6.38828 18.8314ZM6.38828 12.8998C5.99477 12.8997 5.61008 13.0164 5.28286 13.2349C4.95563 13.4535 4.70058 13.7642 4.54995 14.1277C4.39933 14.4913 4.3599 14.8913 4.43665 15.2773C4.5134 15.6632 4.70288 16.0178 4.98114 16.296C5.25939 16.5743 5.61391 16.7638 5.99987 16.8405C6.38582 16.9173 6.78586 16.8778 7.1494 16.7272C7.51294 16.5766 7.82365 16.3215 8.04222 15.9943C8.2608 15.6671 8.37742 15.2824 8.37735 14.8889C8.37652 14.3616 8.16669 13.8561 7.79385 13.4833C7.42101 13.1105 6.91556 12.9006 6.38828 12.8998Z" fill="black"/>
<path id="Vector_6" d="M13.6125 9.88516C12.8327 9.88516 12.0705 9.65393 11.4221 9.22071C10.7738 8.7875 10.2684 8.17175 9.97003 7.45134C9.67163 6.73093 9.59355 5.93821 9.74568 5.17342C9.8978 4.40864 10.2733 3.70614 10.8247 3.15476C11.3761 2.60338 12.0786 2.22788 12.8433 2.07576C13.6081 1.92363 14.4008 2.00171 15.1213 2.30011C15.8417 2.59852 16.4574 3.10385 16.8906 3.7522C17.3239 4.40055 17.5551 5.16281 17.5551 5.94258C17.5544 6.98799 17.1387 7.99038 16.3995 8.7296C15.6603 9.46882 14.6579 9.88443 13.6125 9.88516ZM13.6125 3.95352C13.219 3.95352 12.8344 4.07021 12.5072 4.28883C12.18 4.50745 11.925 4.81818 11.7744 5.18173C11.6239 5.54528 11.5845 5.94531 11.6613 6.33124C11.7381 6.71716 11.9276 7.07165 12.2059 7.34986C12.4842 7.62808 12.8387 7.81752 13.2246 7.89424C13.6106 7.97096 14.0106 7.93151 14.3741 7.78087C14.7376 7.63024 15.0483 7.37518 15.2669 7.04797C15.4854 6.72075 15.602 6.33607 15.602 5.94258C15.6011 5.41523 15.3912 4.90973 15.0183 4.53688C14.6454 4.16402 14.1398 3.95424 13.6125 3.95352Z" fill="black"/>
</g>
</g>
</svg>
