<svg width="24" height="25" viewBox="0 0 24 25" fill="none" xmlns="http://www.w3.org/2000/svg">
<g id="like">
<path id="Vector" d="M14 10.3167H18.764C19.1049 10.3167 19.4401 10.4038 19.7378 10.5698C20.0355 10.7358 20.2859 10.9751 20.4651 11.265C20.6444 11.555 20.7465 11.8859 20.7619 12.2264C20.7773 12.5669 20.7054 12.9057 20.553 13.2107L17.053 20.2106C16.8869 20.5431 16.6314 20.8227 16.3152 21.0181C15.999 21.2134 15.6347 21.3168 15.263 21.3167H11.246C11.083 21.3167 10.92 21.2967 10.761 21.2567L7 20.3167M14 10.3167V5.31665C14 4.78622 13.7893 4.27751 13.4142 3.90244C13.0391 3.52736 12.5304 3.31665 12 3.31665H11.905C11.405 3.31665 11 3.72165 11 4.22165C11 4.93565 10.789 5.63365 10.392 6.22765L7 11.3167V20.3167M14 10.3167H12M7 20.3167H5C4.46957 20.3167 3.96086 20.1059 3.58579 19.7309C3.21071 19.3558 3 18.8471 3 18.3167V12.3167C3 11.7862 3.21071 11.2775 3.58579 10.9024C3.96086 10.5274 4.46957 10.3167 5 10.3167H7.5" stroke="#93A5B4" stroke-width="2" stroke-linecap="round" stroke-linejoin="round"/>
</g>
</svg>
