<svg width="22" height="22" viewBox="0 0 22 22" fill="none" xmlns="http://www.w3.org/2000/svg">
<g id="linkedin">
<path id="Vector" d="M18.9062 2.40625H3.09375C2.71348 2.40625 2.40625 2.71348 2.40625 3.09375V18.9062C2.40625 19.2865 2.71348 19.5938 3.09375 19.5938H18.9062C19.2865 19.5938 19.5938 19.2865 19.5938 18.9062V3.09375C19.5938 2.71348 19.2865 2.40625 18.9062 2.40625ZM7.50449 17.0521H4.9543V8.84941H7.50449V17.0521ZM6.23047 7.72793C5.93812 7.72793 5.65234 7.64124 5.40927 7.47882C5.16619 7.3164 4.97674 7.08555 4.86486 6.81546C4.75298 6.54537 4.72371 6.24816 4.78075 5.96144C4.83778 5.67471 4.97856 5.41133 5.18528 5.20461C5.392 4.99789 5.65537 4.85712 5.9421 4.80008C6.22883 4.74305 6.52603 4.77232 6.79612 4.8842C7.06621 4.99607 7.29707 5.18553 7.45948 5.4286C7.6219 5.67168 7.70859 5.95746 7.70859 6.2498C7.70645 7.06621 7.04473 7.72793 6.23047 7.72793ZM17.0521 17.0521H14.5041V13.0625C14.5041 12.1107 14.4869 10.8883 13.1785 10.8883C11.8529 10.8883 11.6488 11.9238 11.6488 12.9937V17.0521H9.10293V8.84941H11.5479V9.9709H11.5822C11.9217 9.32637 12.7531 8.64531 13.9949 8.64531C16.5773 8.64531 17.0521 10.3447 17.0521 12.5533V17.0521Z" fill="#698296"/>
</g>
</svg>
