<svg width="8" height="8" viewBox="0 0 8 8" fill="none" xmlns="http://www.w3.org/2000/svg">
<g id="001-padlock 1" clip-path="url(#clip0_834_1887)">
<g id="Group">
<path id="Vector" d="M7.11368 3.79546C7.00759 3.68939 6.87885 3.6364 6.72727 3.6364H6.54556V2.54543C6.54556 1.84847 6.29563 1.25004 5.7956 0.750034C5.29562 0.250011 4.69725 0 4.00019 0C3.30315 0 2.70466 0.250011 2.20472 0.750014C1.7047 1.25004 1.45477 1.84845 1.45477 2.54543V3.6364H1.27297C1.12151 3.6364 0.992695 3.68939 0.886624 3.79546C0.780554 3.90145 0.727539 4.03027 0.727539 4.18187V7.45456C0.727539 7.60603 0.780574 7.73488 0.886624 7.84097C0.992695 7.94695 1.12151 8 1.27297 8H6.72741C6.87899 8 7.00771 7.947 7.11382 7.84097C7.21979 7.73488 7.2729 7.60603 7.2729 7.45456V4.18181C7.27298 4.03033 7.21979 3.90153 7.11368 3.79546ZM5.45471 3.6364H2.54568V2.54543C2.54568 2.14393 2.68775 1.8011 2.97183 1.51706C3.25595 1.23298 3.59872 1.09097 4.00025 1.09097C4.40183 1.09097 4.74451 1.23296 5.02866 1.51706C5.31266 1.80108 5.45471 2.14393 5.45471 2.54543V3.6364Z" fill="#323E48"/>
</g>
</g>
<defs>
<clipPath id="clip0_834_1887">
<rect width="8" height="8" fill="white"/>
</clipPath>
</defs>
</svg>
