<svg width="20" height="21" viewBox="0 0 20 21" fill="none" xmlns="http://www.w3.org/2000/svg">
<g id="more">
<path id="Vector" d="M13 10.5C13 11.325 13.675 12 14.5 12C15.325 12 16 11.325 16 10.5C16 9.675 15.325 9 14.5 9C13.675 9 13 9.675 13 10.5ZM11.5 10.5C11.5 9.675 10.825 9 10 9C9.175 9 8.5 9.675 8.5 10.5C8.5 11.325 9.175 12 10 12C10.825 12 11.5 11.325 11.5 10.5ZM7 10.5C7 9.675 6.325 9 5.5 9C4.675 9 4 9.675 4 10.5C4 11.325 4.675 12 5.5 12C6.325 12 7 11.325 7 10.5Z" fill="#698296"/>
</g>
</svg>
