<svg width="12" height="12" viewBox="0 0 12 12" fill="none" xmlns="http://www.w3.org/2000/svg">
<g id="star" clip-path="url(#clip0_612_420)">
<path id="Vector" d="M11.4931 4.75771L11.493 4.75716C11.476 4.70465 11.4299 4.66775 11.3748 4.66279L11.3744 4.66276L7.91092 4.34826L7.61363 4.32127L7.49634 4.04675L6.1272 0.842151C6.12716 0.842054 6.12712 0.841957 6.12708 0.841861C6.10459 0.789849 6.05477 0.75769 6.00006 0.75769C5.94552 0.75769 5.89578 0.789655 5.87319 0.842068C5.87315 0.842149 5.87312 0.84223 5.87309 0.842311L4.50377 4.04678L4.38647 4.32128L4.08919 4.34826L0.625935 4.66268C0.625822 4.66269 0.625708 4.6627 0.625595 4.66271C0.570309 4.66796 0.524185 4.7048 0.506895 4.75797C0.489527 4.81138 0.505803 4.86849 0.546632 4.90412L0.54758 4.90494L3.1656 7.20096L3.38942 7.39726L3.32351 7.68757L2.55163 11.0877C2.55162 11.0878 2.55161 11.0878 2.55159 11.0879C2.53906 11.1436 2.56063 11.1988 2.60486 11.2308C2.6307 11.2494 2.65857 11.2576 2.68549 11.2576C2.7083 11.2576 2.73212 11.2516 2.7557 11.2375L2.75592 11.2374L5.74355 9.45177L6.00011 9.29843L6.25664 9.45181L9.24317 11.2374L9.24434 11.2381C9.29052 11.2659 9.34905 11.2639 9.39417 11.2311L9.39421 11.2311C9.43924 11.1985 9.46034 11.143 9.44805 11.0882L11.4931 4.75771ZM11.4931 4.75771C11.5104 4.81075 11.4946 4.86813 11.4524 4.90502L11.452 4.90537L8.83401 7.20093L8.61015 7.39722L8.67606 7.68757L9.44799 11.0879L11.4931 4.75771Z" stroke="#BFC9D2"/>
</g>
<defs>
<clipPath id="clip0_612_420">
<rect width="12" height="12" fill="white" transform="translate(0 0.000244141)"/>
</clipPath>
</defs>
</svg>
