<svg width="20" height="20" viewBox="0 0 20 20" fill="none" xmlns="http://www.w3.org/2000/svg">
<g id="u:chart-growth-alt">
<path id="Vector" d="M2.83268 16.6666V17.1666H3.33268H17.4993C17.5878 17.1666 17.6725 17.2017 17.7351 17.2643C17.7976 17.3268 17.8327 17.4116 17.8327 17.5C17.8327 17.5884 17.7976 17.6732 17.7351 17.7357C17.6725 17.7982 17.5878 17.8333 17.4993 17.8333H2.49935C2.41094 17.8333 2.32616 17.7982 2.26365 17.7357C2.20113 17.6732 2.16602 17.5884 2.16602 17.5V2.49996C2.16602 2.41155 2.20113 2.32677 2.26365 2.26426C2.32616 2.20174 2.41094 2.16663 2.49935 2.16663C2.58775 2.16663 2.67254 2.20174 2.73505 2.26426C2.79756 2.32677 2.83268 2.41155 2.83268 2.49996V3.33329V3.83329H3.33268H15.8327C15.9211 3.83329 16.0059 3.86841 16.0684 3.93092L16.3984 3.60094L16.0684 3.93092C16.1309 3.99344 16.166 4.07822 16.166 4.16663C16.166 4.25503 16.1309 4.33982 16.0684 4.40233C16.0059 4.46484 15.9211 4.49996 15.8327 4.49996H3.33268H2.83268V4.99996V6.66663V7.16663H3.33268H12.4993C12.5878 7.16663 12.6725 7.20174 12.7351 7.26426C12.7976 7.32677 12.8327 7.41155 12.8327 7.49996C12.8327 7.58837 12.7976 7.67315 12.7351 7.73566C12.6725 7.79817 12.5878 7.83329 12.4993 7.83329H3.33268H2.83268V8.33329V9.99996V10.5H3.33268H9.16602C9.25442 10.5 9.33921 10.5351 9.40172 10.5976C9.46423 10.6601 9.49935 10.7449 9.49935 10.8333C9.49935 10.9217 9.46423 11.0065 9.40172 11.069C9.33921 11.1315 9.25442 11.1666 9.16602 11.1666H3.33268H2.83268V11.6666V13.3333V13.8333H3.33268H5.83268C5.92109 13.8333 6.00587 13.8684 6.06838 13.9309L6.42194 13.5774L6.06839 13.9309C6.1309 13.9934 6.16602 14.0782 6.16602 14.1666C6.16602 14.255 6.1309 14.3398 6.06839 14.4023C6.00587 14.4648 5.92109 14.5 5.83268 14.5H3.33268H2.83268V15V16.6666Z" stroke="#2D3840"/>
</g>
</svg>
