<svg width="20" height="20" viewBox="0 0 20 20" fill="none" xmlns="http://www.w3.org/2000/svg">
<g id="u:paperclip">
<path id="Vector" d="M15.4196 10.7032L15.4898 10.6329C15.5023 10.6257 15.5152 10.6194 15.5285 10.6139C15.5694 10.5969 15.6132 10.5882 15.6574 10.5882C15.7016 10.5882 15.7454 10.5969 15.7863 10.6139L15.9776 10.1519L15.7863 10.6139C15.8271 10.6308 15.8643 10.6556 15.8955 10.6869C15.9268 10.7181 15.9516 10.7553 15.9685 10.7961C15.9854 10.837 15.9942 10.8808 15.9942 10.925C15.9942 10.9692 15.9854 11.013 15.9685 11.0538L16.4305 11.2452L15.9685 11.0538C15.9516 11.0947 15.9268 11.1318 15.8955 11.1631L10.7441 16.3062C9.85593 17.1272 8.68573 17.575 7.47613 17.5564C6.26356 17.5379 5.10491 17.0522 4.24158 16.2005C3.37826 15.3488 2.87684 14.1969 2.84181 12.9847C2.8069 11.7766 3.23786 10.6016 4.0452 9.70262L10.6962 3.05165C11.3115 2.48126 12.1237 2.17088 12.9629 2.18569C13.8048 2.20054 14.6082 2.54163 15.2036 3.13708C15.7991 3.73254 16.1402 4.53588 16.155 5.37785C16.1698 6.21705 15.8594 7.02932 15.2889 7.64469L9.55827 13.3837C9.21476 13.7088 8.7597 13.8901 8.28657 13.8901C7.81319 13.8901 7.35789 13.7086 7.01431 13.3831C6.84894 13.2181 6.71759 13.0222 6.62775 12.8065C6.53726 12.5892 6.49067 12.3562 6.49067 12.1208C6.49067 11.8854 6.53726 11.6524 6.62775 11.4351C6.71824 11.2179 6.85085 11.0207 7.01792 10.8549L7.01964 10.8532L11.2943 6.57019C11.2943 6.57017 11.2944 6.57014 11.2944 6.57011C11.3575 6.50701 11.4431 6.47156 11.5324 6.47156C11.6217 6.47156 11.7074 6.50704 11.7705 6.57019C11.8337 6.63334 11.8692 6.719 11.8692 6.80831C11.8692 6.89751 11.8338 6.98306 11.7708 7.04619C11.7707 7.04627 11.7706 7.04634 11.7705 7.04642L7.49587 11.3127L7.48914 11.3195L7.48268 11.3264C7.38109 11.4358 7.30205 11.5641 7.25006 11.7041L7.71877 11.8782L7.25006 11.7041C7.19807 11.844 7.17416 11.9929 7.17969 12.142L7.67935 12.1235L7.17969 12.1421C7.18521 12.2912 7.22007 12.4379 7.28227 12.5736C7.34446 12.7093 7.43278 12.8315 7.54218 12.933C7.65158 13.0346 7.77992 13.1137 7.91986 13.1657L8.09398 12.6969L7.91987 13.1657C8.05981 13.2176 8.20863 13.2416 8.35781 13.236C8.50701 13.2305 8.65365 13.1956 8.78936 13.1334L8.58106 12.6789L8.78936 13.1334C8.92181 13.0727 9.04133 12.9872 9.14143 12.8814L14.8857 7.14545L14.8857 7.14546L14.8883 7.14283C15.3684 6.65627 15.6376 6.0002 15.6376 5.31664C15.6376 4.63308 15.3684 3.97701 14.8883 3.49045L14.8826 3.48469L14.8768 3.47912C14.3858 3.01277 13.7345 2.75275 13.0574 2.75275C12.3803 2.75275 11.729 3.01277 11.2381 3.47912L11.2379 3.479L11.2289 3.48809L4.56219 10.1548L4.55178 10.1652L4.542 10.1762C3.85728 10.9466 3.49281 11.9496 3.52314 12.9799C3.55347 14.0102 3.97631 14.99 4.70517 15.7189C5.43402 16.4477 6.41382 16.8706 7.44413 16.9009C8.47444 16.9312 9.47742 16.5668 10.2479 15.882L10.259 15.8721L10.2696 15.8616L15.4196 10.7032Z" stroke="#2D3840"/>
</g>
</svg>
